<svg id="gophigure-banner" xmlns="http://www.w3.org/2000/svg" viewBox="0 0 2048 512.04"><rect id="background" y="0.02" width="2048" height="512" style="fill:#fff"/><rect id="separator" x="512" y="0.02" width="70" height="512" style="fill:#262a33"/><g id="text"><path d="M1086.57,269l-.27-35.09h41.46q16.23,0,22.74-4.92t6.52-14.77q0-11.64-6.8-16.57t-22-4.92h-21.91V352.64h-52.15V150.73h74.06q38,0,59.42,13.94T1209,207a53.56,53.56,0,0,1-5.27,23.37q-5.26,11-17.82,17.82t-34.46,6.65L1137.88,269ZM1074,352.64l17.75-41.88h44.23q14,0,19.55-5.83a18.9,18.9,0,0,0,5.55-13.45,28.74,28.74,0,0,0-2.29-12.06,16.17,16.17,0,0,0-7.35-7.7q-5.06-2.7-13.52-2.7h-41.6l.28-35.09h49.09l12.2,14.29q20.94-1.4,32.94,5.06t17,17.06a50.38,50.38,0,0,1,5.06,22q0,30.1-19.41,45.21t-57.55,15.12Z" style="fill:#262a33"/><path d="M1411.62,254.73q0,31.35-11.44,53.88t-31.55,34.67q-20.1,12.14-46,12.13-26.21,0-46.45-12.13t-31.69-34.67Q1233,286.08,1233,254.73v-6q0-31.34,11.37-53.87t31.55-34.74q20.17-12.19,46.39-12.2,25.92,0,46.1,12.2t31.69,34.74q11.51,22.53,11.51,53.87Zm-52.83-6.24q0-19.12-4.23-32t-12.41-19.41q-8.19-6.53-19.83-6.52-12.21,0-20.25,6.52T1290,216.46q-4,12.9-4,32v6.24q0,18.74,4.1,31.76t12.2,19.76q8.12,6.74,20.31,6.73,11.65,0,19.76-6.73t12.28-19.76q4.15-13,4.16-31.76Z" style="fill:#262a33"/><path d="M1589.26,192.75h-170v-42h170Zm-59.63,159.89h-52V150.73h52Z" style="fill:#262a33"/></g><g id="icon-background"><rect y="0.01" width="511.99" height="511.99" style="fill:#b8e4ff"/><path d="M299,348.74l64.1-14.56c38.52-8.75,53.6-56.25,26.46-84.93-.81-.86-1.64-1.7-2.5-2.5-28.7-27.14-76.18-12.06-84.93,26.46l-14.56,64.1a9.55,9.55,0,0,0,7.21,11.43A9.69,9.69,0,0,0,299,348.74Z" style="fill:#98ceea"/><path d="M389.52,444.26c-.81-.86-1.65-1.7-2.5-2.5-28.7-27.14-76.19-12.06-84.94,26.46L292.13,512h99.08C406.84,493.25,408.39,464.21,389.52,444.26Z" style="fill:#98ceea"/><path d="M299,153.78l64.11-14.56c38.51-8.75,53.59-56.23,26.46-84.93-.81-.86-1.65-1.69-2.5-2.5-28.71-27.15-76.19-12.06-84.94,26.45l-14.56,64.11a9.55,9.55,0,0,0,7.2,11.43A9.44,9.44,0,0,0,299,153.78Z" style="fill:#98ceea"/><path d="M120.34,473.73l64.1-14.56c38.52-8.75,53.6-56.25,26.46-84.93-.81-.86-1.64-1.7-2.5-2.5-28.7-27.14-76.18-12.06-84.93,26.46l-14.56,64.1a9.55,9.55,0,0,0,7.21,11.43A9.69,9.69,0,0,0,120.34,473.73Z" style="fill:#98ceea"/><path d="M120.31,278.77l64.1-14.56c38.52-8.75,53.6-56.24,26.46-84.93-.81-.86-1.64-1.69-2.5-2.5-28.7-27.15-76.19-12.06-84.94,26.45l-14.56,64.11a9.55,9.55,0,0,0,7.21,11.43A9.44,9.44,0,0,0,120.31,278.77Z" style="fill:#98ceea"/><path d="M123.43,8.25l-14.56,64.1a9.56,9.56,0,0,0,7.21,11.44,9.74,9.74,0,0,0,4.23,0l64.1-14.56C216.48,61.94,232.31,27.79,221,0H126A52.68,52.68,0,0,0,123.43,8.25Z" style="fill:#98ceea"/><path d="M480.68,148.21l-14.56,64.1a9.56,9.56,0,0,0,7.21,11.44,9.44,9.44,0,0,0,4.23,0L512,215.93V111.66A51.23,51.23,0,0,0,480.68,148.21Z" style="fill:#98ceea"/><path d="M512,306.66a51.25,51.25,0,0,0-31.35,36.56L466.1,407.33a9.55,9.55,0,0,0,7.2,11.43,9.44,9.44,0,0,0,4.23,0L512,410.93Z" style="fill:#98ceea"/><path d="M466.1,17.36a9.55,9.55,0,0,0,7.2,11.43,9.44,9.44,0,0,0,4.23,0L512,21V0H470Z" style="fill:#98ceea"/><path d="M32.16,499.23c-.81-.86-1.64-1.7-2.5-2.5A49.55,49.55,0,0,0,0,483.17V512H41A50.78,50.78,0,0,0,32.16,499.23Z" style="fill:#98ceea"/><path d="M32.13,304.27c-.81-.86-1.64-1.69-2.5-2.5A49.59,49.59,0,0,0,0,288.21V390.49l5.66-1.29C44.19,380.45,59.27,333,32.13,304.27Z" style="fill:#98ceea"/><path d="M0,195.5l5.66-1.28c38.52-8.75,53.6-56.23,26.46-84.94-.81-.86-1.64-1.69-2.5-2.5A49.64,49.64,0,0,0,0,93.22Z" style="fill:#98ceea"/></g><g id="icon"><path d="M144.08,374.52l33-145.29c19.83-87.29,127.45-121.47,192.5-60,1.94,1.83,3.84,3.73,5.68,5.68,61.5,65.05,27.32,172.67-60,192.49L170,400.42A21.65,21.65,0,0,1,144.08,374.52Z" style="fill:#fff;stroke:#262a33;stroke-miterlimit:10;stroke-width:17px"/><path d="M106.62,348l33-145.28c19.83-87.29,127.45-121.47,192.49-60,1.94,1.84,3.84,3.74,5.68,5.68,61.49,65.05,27.32,172.67-60,192.5l-145.29,33A21.66,21.66,0,0,1,106.62,348Z" style="fill:#73caf3;stroke:#262a33;stroke-miterlimit:10;stroke-width:17px"/><path d="M250.17,259.52H230.65q2.47-18.9,6.09-24.9t17.88-15.39q18-11.88,18-25.1a17.73,17.73,0,0,0-5.53-13.43,19.2,19.2,0,0,0-13.79-5.27,23.28,23.28,0,0,0-16.89,7.08q-7.17,7.08-10.07,19l-21-8.16q6.72-18.37,19.78-28.56a47,47,0,0,1,29.7-10.18q19.11,0,30.89,11.21a36.83,36.83,0,0,1,11.77,27.84q0,9.72-5.48,20.46t-24.07,20.14q-11.46,5.79-14.41,11.16T250.17,259.52Zm-2.79,39.36h-25.3l4.33-26.25h25.42Z" style="fill:#262a33"/></g></svg>