<svg id="glyde-banner" xmlns="http://www.w3.org/2000/svg" viewBox="0 0 2048 512"><rect id="background" width="2048" height="512" style="fill:#fff"/><rect id="separator" x="512" width="70" height="512" style="fill:#312a38"/><g id="text"><path d="M1080.4,327.66q-5.4,5.82-16.15,12.27t-27,10.95q-16.23,4.51-38.14,4.51-27.18,0-47.35-11.44t-31.34-33.56q-11.18-22.11-11.17-54v-9.15q0-32,11.23-54.22t30.93-33.7q19.68-11.51,44.93-11.51,28.43,0,46.18,8.94t26.76,24.89q9,16,11,36.75H1030.2a44,44,0,0,0-4.85-16.08,23,23,0,0,0-10.12-9.57q-6.53-3.19-17.06-3.19a30.83,30.83,0,0,0-19.07,6.1q-8.1,6.11-12.55,18.79T962.12,247v9.43q0,19.41,4.23,32.1t13.24,18.86q9,6.18,23.3,6.17a58.54,58.54,0,0,0,12-1,40,40,0,0,0,8.25-2.56,23,23,0,0,0,5.13-3.05V279.4H996.78V242.51h83.62Z" style="fill:#262a33"/><path d="M1158.75,352.62h-52V150.71h52Zm83.21,0H1140.45V310.74H1242Z" style="fill:#262a33"/><path d="M1300.2,234.19l34.53-83.48h56l-64.07,130.08v71.83h-52.83V280.79l-64.2-130.08h56Z" style="fill:#262a33"/><path d="M1456.2,352.62h-52.14V150.71h52.14Zm-30.09,0,.28-41.88h44.24q13.17,0,22.18-6.1t13.73-18.45q4.71-12.33,4.72-31.06v-7.07q0-18.59-4.65-30.86t-13.87-18.37q-9.23-6.11-23-6.1h-44.51v-42h44.51q27.74,0,49,12.48a88.65,88.65,0,0,1,33.36,34.46q12.06,22,12.06,50.69v6.79q0,28.58-12.06,50.62A88.5,88.5,0,0,1,1519,340.21q-21.07,12.41-48.39,12.41Z" style="fill:#262a33"/><path d="M1639.67,352.62h-52.14V150.71h52.14Zm88.61-159.89H1621.22v-42h107.06Zm-14.15,76.55h-92.91V228.92h92.91Zm13.73,83.34H1621.22V310.74h106.64Z" style="fill:#262a33"/></g><g id="glyde_icon"><rect id="background-2" data-name="background" width="512" height="512" style="fill:#ede1ff"/><path id="wave-dark" d="M209.41,96.55c.09-3.73-2.5-4.34-3.59-.83C189.82,148,179.3,203.18,187.76,246c29.9,151,273.12,29,272.9,37.43-.19,7.25-119.41,135.26-200.23,35.42C228.33,279.13,207.86,159.74,209.41,96.55Z" style="fill:#312a38"/><path id="wave-light" d="M302.9,415.43c-.09,3.73,2.5,4.34,3.59.83C322.49,364,333,308.79,324.55,266c-29.89-151-273.12-29-272.89-37.43.18-7.26,119.4-135.26,200.23-35.43C284,232.85,304.46,352.24,302.9,415.43Z" style="fill:#453b51"/></g></svg>