<svg id="glyde-icon-color-bg" xmlns="http://www.w3.org/2000/svg" viewBox="0 0 1024 1024"><rect id="background" width="1024" height="1024" style="fill:#ede1ff"/><path id="wave-dark" d="M418.51,193.12c.18-7.46-5-8.68-7.18-1.66-32,104.54-53.05,214.93-36.12,300.46C435,793.86,921.45,549.89,921,566.78c-.37,14.51-238.81,270.52-400.46,70.85C456.34,558.28,415.4,319.5,418.51,193.12Z" style="fill:#312a38"/><path id="wave-light" d="M605.49,830.88c-.18,7.46,5,8.68,7.18,1.66,32-104.54,53.05-214.93,36.12-300.46C589,230.14,102.55,474.11,103,457.22c.37-14.51,238.81-270.52,400.46-70.85C567.66,465.72,608.6,704.5,605.49,830.88Z" style="fill:#453b51"/></svg>