<svg xmlns="http://www.w3.org/2000/svg" viewBox="0 0 1024 1024"><g id="glyde-icon-white"><path d="M423.28,296.68c-3.82-38.35-5.5-74-4.77-103.56.18-7.46-5-8.68-7.18-1.66-9.71,31.75-18.41,64-25.35,96A190.81,190.81,0,0,1,423.28,296.68Z" style="fill:#fff"/><path d="M438.75,404.92a497.38,497.38,0,0,0-69.28,5.56c-.92,28.78.75,56.2,5.74,81.44,18.07,91.29,75.15,132.66,146,146.45l-.62-.74C485,593.63,456.5,500.61,438.75,404.92Z" style="fill:#fff"/><path d="M570.41,684.11c-1.85-13.49-3.93-27.08-6.22-40.65a306.89,306.89,0,0,1-43-5.09C537,657.72,553.47,672.75,570.41,684.11Z" style="fill:#fff"/><path d="M678.44,634.93q-1.47,21.12-4.6,43.7-2.36,16.9-5.69,34.84C797.49,712.41,920.76,577.21,921,566.78,921.23,558.5,804.55,612.85,678.44,634.93Z" style="fill:#fff"/><path id="wave-light" d="M605.49,830.88c-.18,7.46,5,8.68,7.18,1.66,32-104.54,53.05-214.93,36.12-300.46C589,230.14,102.55,474.11,103,457.22c.37-14.51,238.81-270.52,400.46-70.85C567.66,465.72,608.6,704.5,605.49,830.88Z" style="fill:#fff"/></g></svg>