<svg xmlns="http://www.w3.org/2000/svg" viewBox="0 0 2048.16 2048.29"><g id="Background"><rect y="0.04" width="2048.1" height="2048.1" style="fill:#b8e4ff"/><path d="M1196,1395.07l256.43-58.25c154.08-35,214.41-225,105.86-339.76q-4.87-5.16-10-10c-114.81-108.56-304.77-48.23-339.77,105.85l-58.24,256.44A38.23,38.23,0,0,0,1196,1395.07Z" style="fill:#98ceea"/><path d="M1558.2,1777.17q-4.87-5.16-10-10c-114.81-108.56-304.77-48.22-339.77,105.85l-39.82,175.3h396.36C1627.5,1973.16,1633.67,1857,1558.2,1777.17Z" style="fill:#98ceea"/><path d="M1195.9,615.18l256.44-58.25c154.08-35,214.41-224.95,105.86-339.76q-4.87-5.16-10-10C1433.36,98.58,1243.4,158.92,1208.4,313l-58.24,256.44A38.23,38.23,0,0,0,1195.9,615.18Z" style="fill:#98ceea"/><path d="M481.39,1895.07l256.43-58.25c154.08-35,214.41-225,105.86-339.76q-4.87-5.16-10-10c-114.81-108.56-304.77-48.23-339.77,105.85l-58.24,256.44A38.23,38.23,0,0,0,481.39,1895.07Z" style="fill:#98ceea"/><path d="M481.27,1115.18l256.44-58.25c154.08-35,214.41-225,105.85-339.76q-4.86-5.16-10-10C718.73,598.58,528.77,658.92,493.77,813l-58.24,256.44A38.23,38.23,0,0,0,481.27,1115.18Z" style="fill:#98ceea"/><path d="M493.77,33,435.53,289.43a38.23,38.23,0,0,0,45.74,45.75l256.44-58.25C866,247.79,929.31,111.18,884.2,0H504.15A211.44,211.44,0,0,0,493.77,33Z" style="fill:#98ceea"/><path d="M1922.88,592.88l-58.24,256.44a38.23,38.23,0,0,0,45.75,45.75l137.77-31.3V446.68C1988.43,470.4,1939.07,521.61,1922.88,592.88Z" style="fill:#98ceea"/><path d="M2048.16,1226.75c-59.78,23.69-109.19,74.92-125.39,146.24l-58.24,256.44a38.23,38.23,0,0,0,45.74,45.75l137.89-31.32Z" style="fill:#98ceea"/><path d="M1864.53,69.43a38.23,38.23,0,0,0,45.74,45.75l137.89-31.32V0H1880.3Z" style="fill:#98ceea"/><path d="M128.66,1997.06q-4.87-5.16-10-10c-34.77-32.87-76.42-50.25-118.57-54.24v115.5H164.15A203.16,203.16,0,0,0,128.66,1997.06Z" style="fill:#98ceea"/><path d="M128.54,1217.17q-4.87-5.16-10-10C83.78,1174.3,42.17,1156.92.06,1152.91v409.16l22.63-5.14C176.77,1521.93,237.1,1332,128.54,1217.17Z" style="fill:#98ceea"/><path d="M.06,782.07l22.63-5.14C176.77,741.93,237.1,552,128.54,437.17q-4.87-5.16-10-10C83.78,394.3,42.17,376.92.06,372.91Z" style="fill:#98ceea"/></g><g id="Icon"><path d="M576.37,1498.18,708.38,917c79.32-349.21,509.84-485.94,770.05-239.91q11.67,11,22.73,22.73c246,260.2,109.29,690.72-239.92,770l-581.19,132C617.87,1616,562.25,1560.36,576.37,1498.18Z" style="fill:#fff;stroke:#262a33;stroke-miterlimit:10;stroke-width:70px"/><path d="M426.52,1392.16,558.53,811c79.32-349.21,509.84-485.95,770-239.92q11.68,11.06,22.73,22.73c246,260.21,109.3,690.73-239.91,770.05l-581.19,132C468,1510,412.39,1454.34,426.52,1392.16Z" style="fill:#73caf3;stroke:#262a33;stroke-miterlimit:10;stroke-width:70px"/><path d="M1000.77,1038.16h-78.1q9.92-75.62,24.38-99.59T1018.54,877q71.91-47.52,71.9-100.42,0-32.64-22.1-53.72t-55.17-21.08q-38.85,0-67.57,28.31t-40.29,75.83l-83.89-32.65Q848.29,699.73,900.56,659t118.81-40.7q76.44,0,123.56,44.83T1190,774.51q0,38.85-21.91,81.82t-96.28,80.59q-45.87,23.15-57.65,44.63T1000.77,1038.16Zm-11.16,157.45H888.37l17.35-105h101.66Z" style="fill:#262a33"/></g></svg>