<svg id="Layer_1" data-name="Layer 1" xmlns="http://www.w3.org/2000/svg" viewBox="0 0 2048 512"><rect width="2048" height="512" style="fill:#fff"/><rect width="368" height="512" style="fill:#b8e4ff"/><rect x="368" width="70" height="512" style="fill:#262a33"/><path d="M575.54,269l-.28-35.09h41.46q16.23,0,22.75-4.92T646,214.22q0-11.64-6.79-16.57t-22.05-4.92H595.23V352.62H543.09V150.71h74q38,0,59.42,13.94T698,207a53.56,53.56,0,0,1-5.27,23.37q-5.28,11-17.82,17.82t-34.46,6.65L626.85,269Zm-12.62,83.62,17.75-41.88h44.24q14,0,19.55-5.83A18.9,18.9,0,0,0,650,291.46a28.9,28.9,0,0,0-2.29-12.06,16.27,16.27,0,0,0-7.35-7.7q-5.07-2.7-13.52-2.7h-41.6l.27-35.09h49.09l12.21,14.29q20.92-1.39,32.93,5.06t17.06,17.06a50.52,50.52,0,0,1,5.06,22q0,30.1-19.41,45.21t-57.55,15.12Z" style="fill:#262a33"/><path d="M808.23,150.71q23.71,0,41,7T876,178.31q9.44,13.59,9.43,33.69,0,18-5.34,29.75a50.33,50.33,0,0,1-14.84,19.14A94.68,94.68,0,0,1,843,273.57L826,284H760.11l-.28-42h47.85q8.6,0,14.35-2.78a18.36,18.36,0,0,0,8.6-8.25,29.18,29.18,0,0,0,2.84-13.52q0-11.64-6.38-18.16t-18.86-6.52h-28.7V352.62h-52V150.71Zm-15.67,113,55.19-.42,44.38,87.09v2.22H836.38Z" style="fill:#262a33"/><path d="M955.08,352.62H899.2l74-201.91h35.22l-6.1,48.67Zm85-33.84H936.5v-42h103.59Zm-46.87-119.4-6.8-48.67h35.64l74.47,201.91h-55.89Z" style="fill:#262a33"/><path d="M1280.41,352.62h-51.87l-66.7-116.76V352.62h-52V150.71h52l66.7,116.76V150.71h51.87Z" style="fill:#262a33"/><path d="M1361.25,352.62h-52.14V150.71h52.14Zm-30.09,0,.28-41.88h44.24q13.17,0,22.18-6.1t13.73-18.45q4.71-12.33,4.72-31.06v-7.07q0-18.59-4.65-30.86t-13.87-18.37q-9.22-6.11-23-6.1h-44.51v-42h44.51q27.73,0,49,12.48a88.55,88.55,0,0,1,33.35,34.46q12.07,22,12.07,50.69v6.79q0,28.58-12.07,50.62a88.4,88.4,0,0,1-33.14,34.46q-21.08,12.41-48.39,12.41Z" style="fill:#262a33"/><path d="M1547.63,352.62h-51.86V150.71h51.86Z" style="fill:#262a33"/><path d="M1750,352.62h-51.86l-66.7-116.76V352.62h-52V150.71h52l66.7,116.76V150.71H1750Z" style="fill:#262a33"/><path d="M1945.89,327.66q-5.4,5.82-16.15,12.27t-27,10.95q-16.23,4.51-38.14,4.51-27.18,0-47.35-11.44t-31.34-33.56q-11.18-22.11-11.17-54v-9.15q0-32,11.24-54.22t30.92-33.7q19.69-11.51,44.93-11.51,28.42,0,46.18,8.94t26.76,24.89q9,16,11,36.75H1895.7q-1.26-9.7-4.86-16.08a23,23,0,0,0-10.12-9.57q-6.53-3.19-17.06-3.19a30.83,30.83,0,0,0-19.07,6.1q-8.1,6.11-12.55,18.79T1827.61,247v9.43q0,19.41,4.23,32.1t13.24,18.86q9,6.18,23.3,6.17a58.54,58.54,0,0,0,12-1,40,40,0,0,0,8.25-2.56,23,23,0,0,0,5.13-3.05V279.4h-31.47V242.51h83.61Z" style="fill:#262a33"/><path d="M123.07,242.46q-2.44-2.58-5-5C83.92,205.18,36.51,202.76,0,222.29v206l70.14-15.93C147.18,394.82,177.35,299.85,123.07,242.46Z" style="fill:#98ceea"/><path d="M114.7,0H0V38.34L70.08,22.43A102.41,102.41,0,0,0,114.7,0Z" style="fill:#98ceea"/><path d="M276.23,168.6a19.12,19.12,0,0,0,22.88,22.87L368,175.82V0H324.33a102.55,102.55,0,0,0-19,40.4Z" style="fill:#98ceea"/><path d="M368,357.29a102.44,102.44,0,0,0-62.7,73.11L286.76,512H368Z" style="fill:#98ceea"/></svg>